<svg width="1788" height="1861" viewBox="0 0 1788 1861" fill="none" xmlns="http://www.w3.org/2000/svg">
<path d="M1541.23 1221.74C1541.14 1221.94 1541.06 1222.15 1540.98 1222.36C1534.81 1237.79 1528.31 1252.93 1521.51 1267.79C1527.52 1267.55 1539.98 1266.93 1548.38 1266.13C1549.78 1265.98 1551.18 1265.83 1552.57 1265.66C1552.6 1265.66 1552.63 1265.66 1552.66 1265.65C1559.26 1250.94 1565.58 1235.96 1571.57 1220.73C1572 1219.63 1572.43 1218.54 1572.86 1217.44C1572.85 1217.44 1572.84 1217.44 1572.82 1217.44C1562.76 1219.55 1552.17 1221.04 1541.23 1221.74Z" fill="black"/>
<path fill-rule="evenodd" clip-rule="evenodd" d="M0 620.829V793.496H43.3707V1050.57C43.3707 1192.87 145.162 1266.11 247.41 1267.65C241.382 1254.23 235.595 1240.59 230.069 1226.73C229.763 1225.96 229.459 1225.19 229.155 1224.43C158.224 1214.41 93.2766 1157.17 93.2766 1052.35V743.865H50.5001V670.459H156.55H185.662H222.2V743.865H185.662V844.391C185.662 944.651 199.522 1037.51 223.598 1122.87C235.968 1127 249.422 1128.2 262.425 1126.48C258.298 1112.48 254.454 1098.27 250.911 1083.85C236.538 1083.75 222.2 1062.35 222.2 1019.66V794.982H252.203H279.83V1019.66C279.83 1034.66 278.06 1047.03 275.139 1056.77C279.746 1077.42 284.989 1097.62 290.813 1117.39C312.063 1105.85 327.656 1084.17 327.656 1052.35V743.865H284.88V670.459H456.58V743.865H408.457V1052.35V1056.21C408.457 1133.8 371.647 1184.88 323.187 1209.29C328.603 1222.44 334.274 1235.36 340.179 1248.05C390.712 1224.34 431.976 1179.06 447.538 1111.79C538.271 1310.61 756.907 1293.07 835.925 1222.94V1260.98H1089.02V1098.71H1064.66V1075.23H1135.95V1098.71H1111.6V1260.98H1362.61V1211.64C1388.52 1236.09 1417.98 1251.21 1449.21 1259.52C1459.28 1262.2 1470.06 1264.17 1480.27 1265.52C1494.06 1267.34 1507.88 1268.03 1521.51 1267.79C1528.31 1252.93 1534.81 1237.79 1540.98 1222.36C1541.06 1222.15 1541.14 1221.94 1541.23 1221.74C1527.97 1222.58 1514.18 1222.27 1500.18 1220.45C1490.26 1219.17 1480.23 1217.13 1470.2 1214.23C1446.85 1207.47 1423.49 1196.01 1401.53 1178.36C1312.11 1118.92 1232.2 845.207 1401.53 701.07C1459.43 666.685 1501.32 654.019 1543.22 659.631C1553.15 660.961 1563.08 663.317 1573.23 666.654C1585.92 670.83 1598.95 676.542 1612.73 683.699C1622.51 688.773 1632.66 694.574 1643.33 701.07V669.865H1707.2V845.207H1643.33L1639.77 836.885C1635.54 820.177 1626.09 803.289 1612.73 788.871C1601.9 777.168 1588.49 767.093 1573.23 760.064C1563.87 755.754 1553.81 752.59 1543.22 750.897C1528.02 748.466 1511.72 749.069 1494.8 753.672C1380.14 784.877 1366.05 945.359 1398.56 1034.22C1415.94 1081.75 1455.92 1118.04 1501.35 1128.34C1511.33 1130.61 1521.57 1131.62 1531.89 1131.22C1546.4 1130.66 1561.07 1127.31 1575.4 1120.75C1583.11 1093.16 1589.76 1064.78 1595.22 1035.63C1580.44 1056.23 1563.64 1070.17 1546.47 1077.06C1535.8 1081.34 1524.98 1082.9 1514.42 1081.66C1480.78 1077.7 1449.68 1045.3 1433.91 981.617C1414.89 849.665 1491.48 794.745 1522.13 798.549C1529.89 799.512 1536.9 801.178 1543.22 803.413C1555.67 807.811 1565.49 814.409 1573.23 822.166C1595.72 844.713 1600.65 877.056 1601.74 893.649H1611.61H1641.69H1757.4V619.641H1643.03H1612.73H1578.57C1576.78 619.178 1575 618.735 1573.23 618.313C1562.97 615.874 1552.96 614.12 1543.22 612.996C1351.39 590.855 1259.91 812.897 1259.23 856.203H1251.51L1233.98 794.388H1266.07V619.343H937.222V794.388H969.304L917.616 981.914H781.266C733.736 1111.79 627.092 1121 592.633 981.914C573.622 849.962 650.203 795.042 680.86 798.846C748.292 807.213 758.808 868.745 760.472 893.946H917.616V619.343H760.472C637.192 586.355 564.116 635.094 506.783 677.89V620.829H252.203H222.497H185.662H156.55H0ZM1215.86 745.054V670.162H987.425V745.054H1025.75L918.804 1137.34H887.613V1209.26H1051V1137.34H1002.87L1032.58 1032.14H1162.99L1192.69 1137.34H1146.65V1209.26H1310.03V1137.34H1278.84L1171.9 745.054H1215.86ZM868.03 845.427H804.162L800.598 837.106C787.824 786.584 727.224 734.41 655.633 753.893C540.968 785.098 526.878 945.58 559.386 1034.44C597.112 1137.56 741.186 1187.79 816.639 1034.44H887.636C888.349 1052.75 861.421 1127.76 814.857 1178.58C782.18 1214.24 658.901 1256.14 562.356 1178.58C472.941 1119.14 393.033 845.427 562.356 701.29C663.325 641.332 715.605 647.414 804.162 701.29V670.086H868.03V845.427Z" fill="black"/>
<path d="M1689.38 1211.64C1775.23 1127.24 1788 1008.66 1788 980.726H1633.77H1623.43C1615.49 1002.41 1605.88 1020.76 1595.22 1035.63C1589.76 1064.78 1583.11 1093.16 1575.4 1120.75C1587.85 1115.05 1600.04 1106.92 1611.65 1096.07C1627.81 1080.97 1642.82 1060.61 1655.81 1034.22H1729.78C1730.49 1052.53 1703.74 1138.72 1654.03 1178.36C1626.52 1200.29 1610.2 1209.63 1572.86 1217.44C1572.43 1218.54 1572 1219.63 1571.57 1220.73C1565.58 1235.96 1559.26 1250.94 1552.66 1265.65C1617.61 1257.99 1672.98 1231.65 1689.38 1211.64Z" fill="black"/>
<path d="M230.069 1226.73C235.595 1240.59 241.382 1254.23 247.41 1267.65C257.016 1267.79 266.626 1267.3 276.156 1266.18C288.344 1264.74 300.4 1262.26 312.151 1258.74C306.736 1247 301.516 1235.07 296.505 1222.96C296.108 1222 295.712 1221.04 295.317 1220.07C283.422 1223.41 271.159 1225.34 258.831 1225.87C248.929 1226.3 238.984 1225.81 229.155 1224.43C229.459 1225.19 229.763 1225.96 230.069 1226.73Z" fill="black"/>
<path d="M323.187 1209.29C314.241 1213.79 304.898 1217.39 295.317 1220.07C295.712 1221.04 296.108 1222 296.505 1222.96C301.516 1235.07 306.736 1247 312.151 1258.74C321.729 1255.87 331.103 1252.31 340.179 1248.05C334.274 1235.36 328.603 1222.44 323.187 1209.29Z" fill="black"/>
<path d="M174.077 743.865V1032.9C178.174 1055.06 182.943 1076.79 188.333 1098.1C197.301 1110.01 209.772 1118.26 223.598 1122.87C199.522 1037.51 185.662 944.651 185.662 844.391V743.865H174.077Z" fill="black"/>
<path d="M250.911 1083.85C254.454 1098.27 258.298 1112.48 262.425 1126.48C272.383 1125.16 282.076 1122.13 290.813 1117.39C284.989 1097.62 279.746 1077.42 275.139 1056.77C269.709 1074.89 260.302 1083.92 250.911 1083.85Z" fill="black"/>
<path d="M188.333 1098.1C182.943 1076.79 178.174 1055.06 174.077 1032.9V1052.35C174.077 1071.13 179.51 1086.38 188.333 1098.1Z" fill="black"/>
<path d="M185.662 29.7189H1612.73V619.641H1643.03V0H156.55V620.829H185.662V29.7189Z" fill="black"/>
<path fill-rule="evenodd" clip-rule="evenodd" d="M252.203 557.527C762.358 472.11 1049.51 476.066 1543.22 557.527V612.996C1552.96 614.12 1562.97 615.874 1573.23 618.313V65.6789H222.497V620.829H252.203V557.527ZM1543.22 535.535V94.5062H252.203V535.535C762.358 450.118 1049.51 454.074 1543.22 535.535Z" fill="black"/>
<path fill-rule="evenodd" clip-rule="evenodd" d="M1079.22 411.641L1359.94 128.122C1364.1 81.1669 1425.88 136.444 1376.57 142.387L1370.63 148.926C1377.83 162.642 1385.64 176.742 1393.41 190.794C1393.42 190.796 1393.42 190.798 1393.42 190.8C1393.42 190.802 1393.42 190.804 1393.42 190.805L1393.42 190.808L1393.42 190.809C1435.69 267.178 1477.18 342.139 1416.97 346.557C1395.98 352.203 1357.8 368.311 1373.01 387.569C1392.02 411.641 1378.35 428.284 1356.08 428.284C1352.63 428.284 1349.04 428.213 1345.41 428.141C1325.53 427.748 1304.41 427.331 1299.63 438.388C1293.99 451.464 1263.39 487.424 1234.58 473.456C1227.7 470.12 1229.32 456.902 1230.73 445.478C1230.78 445.095 1230.82 444.714 1230.87 444.336C1230.92 443.935 1230.97 443.538 1231.01 443.143C1233.85 414.81 1221.78 372.221 1215.43 349.801L1215.43 349.8C1215.43 349.794 1215.42 349.789 1215.42 349.784C1213.78 343.992 1212.52 339.548 1212 337.047C1210.52 329.914 1214.14 315.589 1240.52 315.352C1264.58 315.649 1309.67 311.31 1297.55 291.577C1285.43 271.843 1271.51 257.796 1266.07 253.239L1093.47 428.284L1079.22 411.641ZM1424.7 329.023C1453.45 314.995 1396.87 217.775 1364.99 170.918C1341.63 223.379 1321.18 237.555 1277.65 248.187C1296.43 255.32 1337.95 326.645 1345.38 373.304C1362.02 354.284 1388.75 346.557 1424.7 329.023ZM1348.35 168.243C1342.03 203.572 1331.07 218.108 1288.94 227.978L1348.35 168.243ZM1256.86 327.239C1264.46 328.666 1304.39 320.701 1311.22 313.272C1324.79 333.976 1346.87 377.227 1326.67 384.597C1306.47 391.967 1271.71 349.43 1256.86 327.239ZM1305.87 389.946C1322.27 400.407 1342.81 388.361 1351.03 381.031C1370.26 381.031 1346.49 384.597 1362.02 397.376C1374.44 407.599 1356.1 414.91 1345.38 417.288H1305.87C1300.53 422.043 1288.46 433.871 1283 443.143C1276.17 454.733 1240.52 475.648 1244.38 460.678C1248.24 445.707 1226.26 356.067 1223.29 337.047C1220.91 321.83 1236.36 326.744 1244.38 331.103C1258.05 346.359 1289.47 379.485 1305.87 389.946Z" fill="black"/>
<path fill-rule="evenodd" clip-rule="evenodd" d="M715.021 411.904L434.3 128.386C430.142 81.4301 368.354 136.707 417.665 142.651L423.606 149.189C416.402 162.91 408.596 177.014 400.815 191.071L400.815 191.072C358.545 267.441 317.054 342.402 377.265 346.82C398.257 352.466 436.44 368.574 421.23 387.832C402.218 411.904 415.883 428.547 438.162 428.547C441.603 428.547 445.193 428.476 448.824 428.404C468.705 428.012 489.831 427.595 494.604 438.651C500.248 451.728 530.845 487.688 559.66 473.72C566.542 470.383 564.915 457.164 563.509 445.74C563.506 445.717 563.504 445.694 563.501 445.671C563.458 445.321 563.415 444.972 563.372 444.625C563.347 444.422 563.323 444.22 563.298 444.018C563.273 443.814 563.249 443.61 563.224 443.406C560.392 415.073 572.459 372.484 578.811 350.064C580.454 344.264 581.715 339.814 582.236 337.31C583.722 330.177 580.097 315.853 553.719 315.615C529.657 315.912 484.563 311.573 496.683 291.84C508.803 272.106 522.725 258.059 528.171 253.502L700.763 428.547L715.021 411.904ZM369.542 329.286C340.786 315.259 397.366 218.038 429.251 171.181C452.612 223.642 473.056 237.818 516.586 248.45C497.812 255.583 456.283 326.908 448.857 373.567C432.221 354.547 405.486 346.82 369.542 329.286ZM445.886 168.506C452.205 203.835 463.169 218.371 505.298 228.241L445.886 168.506ZM537.38 327.503C529.776 328.929 489.851 320.965 483.018 313.535C469.453 334.239 447.371 377.49 467.571 384.86C487.771 392.231 522.527 349.693 537.38 327.503ZM488.365 390.21C471.968 400.671 451.431 388.625 443.212 381.294C423.98 381.294 447.745 384.86 432.221 397.639C419.802 407.863 438.137 415.174 448.857 417.551H488.365C493.713 422.306 505.773 434.134 511.239 443.406C518.071 454.997 553.719 475.912 549.857 460.941C545.995 445.97 567.977 356.33 570.948 337.31C573.324 322.093 557.877 327.007 549.857 331.366C536.192 346.622 504.763 379.749 488.365 390.21Z" fill="black"/>
<path d="M899.198 1830.69C745.589 1797.08 431.165 1606.23 276.156 1266.18C266.626 1267.3 257.016 1267.79 247.41 1267.65C407.5 1624.07 738.095 1826.14 899.198 1861C1060.51 1826.1 1392.51 1622.46 1552.66 1265.65L1552.57 1265.66C1551.36 1265.82 1549.94 1265.98 1548.38 1266.13C1539.56 1267.05 1530.58 1267.62 1521.51 1267.79C1518.18 1275.05 1514.78 1282.24 1511.31 1289.37C1352.88 1614.91 1049.28 1797.86 899.198 1830.69Z" fill="black"/>
<path d="M899.198 1794.73C1042.22 1763.07 1331.19 1581.25 1480.27 1265.52C1470.06 1264.17 1459.28 1262.2 1449.21 1259.52C1305.42 1557.53 1034.45 1728.31 899.198 1758.47C762.135 1727.91 482.759 1554.56 340.179 1248.05C331.103 1252.31 321.729 1255.87 312.151 1258.74C460.523 1580.49 755.039 1762.82 899.198 1794.73Z" fill="black"/>
<path d="M1543.22 803.413V845.725C1543.22 930.072 1532.79 1008.74 1514.42 1081.66C1524.98 1082.9 1535.8 1081.34 1546.47 1077.06C1563.58 1005.22 1573.23 928.115 1573.23 845.801V822.166C1565.49 814.409 1555.67 807.811 1543.22 803.413Z" fill="black"/>
<path d="M1611.61 893.649C1609.35 942.857 1603.73 990.187 1595.22 1035.63C1605.88 1020.76 1615.49 1002.41 1623.43 980.726H1633.77C1637.54 952.368 1640.22 923.342 1641.69 893.649H1611.61Z" fill="black"/>
<path fill-rule="evenodd" clip-rule="evenodd" d="M829.688 1388.47C872.464 1338.24 940.194 1353.4 965.444 1391.74H983.267C1042.68 1371.83 1088.13 1322.79 1097.64 1309.71C1116.43 1283.86 1105.66 1370.04 1046.84 1409.87C1052.78 1421.46 1104.05 1428.53 1119.02 1414.03C1131.91 1401.55 1130.01 1429.18 1106.55 1434.53C1100.61 1435.72 1109.52 1439.59 1113.08 1442.56C1116.64 1445.53 1098.52 1466.22 1089.32 1458.61C1075.65 1447.31 1073.75 1453.26 1081.89 1462.17C1088.13 1469.01 1077.4 1483.87 1066.14 1472.87C1053.37 1460.39 1043.9 1465.44 1059.31 1477.92C1071.79 1488.03 1047.55 1510.32 1038.82 1496.05C1027.53 1477.63 1000.68 1473.76 1004.06 1488.03C1020.4 1556.98 980.594 1592.04 961.582 1614.33C958.314 1618.16 949.403 1647.62 958.314 1672.58C960.33 1678.23 950.888 1696.36 930.688 1694.28C903.66 1688.39 884.347 1688.11 857.317 1694.28C837.117 1696.36 827.672 1678.23 829.688 1672.58C838.6 1647.62 829.688 1618.16 826.42 1614.33C807.409 1592.04 767.603 1556.98 783.941 1488.03C785.138 1482.98 778.888 1464.55 751.856 1495.46C744.132 1504.29 725.715 1495.46 744.132 1479.11C748.486 1475.25 742.648 1469.6 735.221 1477.33L735.144 1477.41C730.098 1482.66 723.02 1490.02 718.883 1473.76C708.486 1473.76 695.415 1460.15 691.85 1454.44C722.15 1454.44 716.09 1448.32 709.674 1446.42C684.424 1446.42 672.601 1437.74 670.462 1427.99C668.324 1418.25 665.59 1410.58 679.374 1424.13C685.613 1430.27 712.526 1432.27 717.992 1426.81C725.517 1422.35 742.767 1413.91 751.56 1415.81L751.856 1409.87C693.038 1370.04 682.263 1283.86 701.059 1309.71C710.565 1322.79 756.015 1371.83 815.427 1391.74L829.688 1388.47ZM707.298 1322.2C717.992 1336.91 748.292 1376.88 807.704 1396.79C803.545 1404.81 794.99 1420.86 794.039 1420.86C709.674 1391.74 688.502 1296.34 707.298 1322.2ZM1092.58 1322.2C1081.89 1336.91 1051.59 1376.88 992.178 1396.79C996.337 1404.81 1004.89 1420.86 1005.84 1420.86C1090.21 1391.74 1111.38 1296.34 1092.58 1322.2ZM828.201 1459.79C832.954 1449.33 828.201 1426.11 825.23 1415.81C829.488 1418.98 838.182 1428.23 838.895 1439.88C843.153 1437.9 851.906 1432.63 852.857 1427.4C850.956 1438.34 855.035 1455.93 857.313 1463.36C865.097 1460.03 871.052 1439.78 873.057 1430.08C878.523 1430.08 882.068 1459.2 883.157 1473.76C896.525 1470.79 898.307 1449.39 902.763 1437.8C902.763 1447.91 899.792 1469.9 919.695 1471.98C916.131 1465.32 918.21 1442.26 919.695 1431.56C923.161 1441.57 932.825 1461.58 943.757 1461.58C946.609 1455.4 942.569 1436.22 940.192 1427.4C948.807 1434.53 966.749 1450.46 969.601 1457.12C970.195 1446.72 970.788 1424.9 968.413 1420.86C974.354 1431.09 986.534 1453.26 973.166 1474.95C971.978 1467.82 959.798 1458.31 953.857 1454.44C955.996 1459.68 949.005 1476.24 945.242 1483.87C944.767 1478.16 934.35 1467.82 929.201 1463.36L925.934 1488.03C918.091 1488.03 904.842 1476.54 899.198 1470.79C898.01 1477.69 882.662 1488.52 875.136 1493.08C877.988 1485.47 873.948 1465.94 871.572 1457.12C871.869 1466.33 846.916 1482.08 845.133 1482.08C850.183 1471.98 846.025 1444.64 845.133 1447.91C844.242 1451.18 829.688 1459.79 828.201 1459.79ZM867.413 1379.85C862.898 1388.65 847.312 1394.81 840.083 1396.79C841.866 1400.85 848.936 1408.32 862.957 1405.71C872.265 1410.96 896.168 1418.31 917.319 1405.71C943.46 1406.6 944.054 1400.36 944.054 1387.58C930.984 1399.46 927.716 1388.47 920.586 1377.18C921.836 1407.48 909.493 1404.02 902.763 1382.82C902.763 1397.98 886.425 1420.86 881.969 1381.63C879.592 1396.79 857.313 1422.05 867.413 1379.85ZM803.545 1485.95C786.197 1482.62 789.979 1448.3 794.039 1431.56C783.741 1449.79 772.413 1488.5 809.486 1497.54C846.559 1506.57 856.818 1513.39 857.313 1515.67C868.007 1526.36 859.689 1571.83 848.698 1588.18C845.728 1593.33 842.46 1605.12 845.133 1619.38C846.804 1628.3 844.539 1639.3 840.975 1646.43C836.37 1655.64 845.906 1669.91 857.313 1671.1C870.086 1672.43 886.425 1664.56 891.178 1664.56C899.198 1664.56 909.774 1663.19 918.804 1668.42C925.988 1672.58 940.68 1670.39 945.539 1664.56C949.995 1659.21 950.292 1642.27 947.916 1633.95C945.539 1625.63 943.757 1597.69 943.46 1590.56C942.804 1574.81 930.092 1553.11 930.092 1543.9C924.626 1514.66 963.363 1506.43 982.375 1496.05C1003.29 1484.64 1019.51 1456.23 1002.28 1437.8C1006.34 1454.54 996.752 1482.62 979.404 1485.95C957.719 1490.11 949.104 1501.4 925.934 1504.37H865.928C861.769 1496.65 825.23 1490.11 803.545 1485.95ZM947.916 1515.67L939.141 1526.36C939.141 1526.36 959.123 1538.31 970.332 1532.9C982.966 1526.81 988.613 1509.42 982.375 1500.21L971.978 1505.86C976.137 1521.91 959.798 1529.93 947.916 1515.67ZM843.945 1512.69L853.154 1522.2C853.154 1522.2 832.876 1538.31 821.666 1532.9C809.032 1526.81 800.872 1509.42 807.11 1500.21L818.398 1503.18C814.239 1519.23 832.063 1526.96 843.945 1512.69Z" fill="black"/>
<path fill-rule="evenodd" clip-rule="evenodd" d="M1042.38 285.005C1042.38 296.569 1041.01 307.814 1038.43 318.587C1037.43 322.758 1036.25 326.857 1034.9 330.878C1033.55 334.887 1032.02 338.817 1030.34 342.659C1009.54 390.038 963.904 424.03 909.916 428.13C906.281 428.407 902.607 428.547 898.901 428.547C898.67 428.547 898.439 428.547 898.208 428.545C898.172 428.545 898.135 428.545 898.099 428.545C894.087 428.523 890.115 428.336 886.188 427.991C830.938 423.138 784.672 386.957 765.245 337.31C764.058 334.275 762.971 331.19 761.988 328.059C760.769 324.178 759.712 320.225 758.822 316.21C756.596 306.163 755.422 295.721 755.422 285.005C755.422 241.129 775.099 201.85 806.106 175.52C809.445 172.686 812.914 170.001 816.505 167.477L816.506 167.476C820.275 164.826 824.178 162.354 828.201 160.07C849.069 148.225 873.196 141.462 898.901 141.462C927.211 141.462 953.605 149.664 975.84 163.823C979.238 165.987 982.539 168.29 985.735 170.724C988.488 172.821 991.163 175.015 993.755 177.302C1023.57 203.605 1042.38 242.107 1042.38 285.005ZM1020.62 247.865C1027.34 269.594 1028.07 292.661 1022.83 314.648C1022.05 317.915 1019.89 320.379 1017.13 321.723C1014.5 323.006 1011.32 323.268 1008.29 322.236C1011.49 323.325 1013.93 325.651 1015.19 328.47C1016.37 331.125 1016.49 334.217 1015.19 337.123C1005.93 357.743 991.296 375.58 972.718 388.695C954.141 401.809 932.436 409.629 909.916 411.438C903.375 411.963 898.118 406.51 898.208 399.945C898.118 406.51 892.712 411.816 886.188 411.11C863.726 408.679 842.246 400.263 824.038 386.639C805.83 373.016 791.689 354.781 783.011 333.913C780.49 327.851 784.049 321.164 790.318 319.222C784.049 321.164 777.335 317.661 775.99 311.235C771.36 289.112 772.724 266.073 780.048 244.539C787.372 223.004 800.337 203.915 817.494 189.209C819.093 187.837 820.948 187.042 822.854 186.772C826.886 186.201 831.149 187.979 833.718 191.622C831.63 188.662 831.077 185.062 831.956 181.88C832.132 181.241 832.366 180.619 832.657 180.023C833.545 178.205 834.961 176.623 836.883 175.52C856.483 164.279 878.806 158.457 901.541 158.771C924.276 159.086 946.429 165.522 965.711 177.302C967.588 178.449 968.954 180.054 969.793 181.88C971.456 185.501 971.044 189.989 968.431 193.484C970.703 190.444 974.165 188.79 977.622 188.787C980.144 188.784 982.663 189.661 984.715 191.521C1001.46 206.696 1013.89 226.136 1020.62 247.865Z" fill="black"/>
<path d="M924.151 285.005C924.151 285.759 924.118 286.506 924.054 287.243L925.022 286.645L970.493 258.555L918.523 268.206L917.868 268.328C921.779 272.777 924.151 278.614 924.151 285.005Z" fill="black"/>
<path d="M889.238 261.66C892.214 260.425 895.478 259.744 898.901 259.744C902.572 259.744 906.06 260.527 909.207 261.936L909.1 261.316L899.198 203.575L889.385 260.802L889.238 261.66Z" fill="black"/>
<path d="M873.765 287.417C873.69 286.623 873.651 285.818 873.651 285.005C873.651 278.735 875.934 273 879.713 268.584L878.502 268.419L825.528 261.229L872.183 286.558L873.765 287.417Z" fill="black"/>
<path d="M850.778 345.631L891.536 311.093L893.259 309.633C886.434 308.074 880.661 303.749 877.184 297.898L876.208 299.662L850.778 345.631Z" fill="black"/>
<path d="M945.54 345.631L921.469 298.887L920.8 297.589C917.388 303.518 911.64 307.932 904.812 309.57L906.32 310.905L945.54 345.631Z" fill="black"/>
<path d="M1101.64 784.283L1048.03 957.841H1155.26L1101.64 784.283Z" fill="black"/>
<path d="M863.254 1511.8H930.092C924.349 1525.87 916.606 1558.76 931.578 1577.78C936.724 1584.32 928.013 1585.8 922.369 1587.29C915.834 1590.56 872.463 1588.18 871.572 1588.18C862.303 1585.8 860.962 1582.24 863.254 1574.81C870.681 1550.73 871.869 1521.02 863.254 1511.8Z" fill="black"/>
<path fill-rule="evenodd" clip-rule="evenodd" d="M851.075 1608.69C849.589 1593.53 852.009 1584.3 870.681 1592.64C889.989 1601.26 916.725 1599.18 927.122 1592.64C933.657 1588.53 938.469 1593.11 938.707 1605.71C938.87 1614.33 937.757 1628.9 942.272 1637.22C946.431 1647.32 943.757 1663.67 930.092 1661.59C921.746 1660.32 898.604 1655.05 884.345 1656.83C874.542 1658.06 867.651 1663.73 860.283 1661.59C854.045 1659.77 847.51 1655.94 848.698 1650C852.338 1633.53 852.56 1623.84 851.075 1608.69ZM875.136 1626.52C875.136 1631.42 866.522 1638.41 861.472 1641.38C855.233 1645.05 866.225 1648.81 877.216 1639.59C885.725 1632.46 887.613 1606.31 872.166 1604.82C866.522 1604.28 858.798 1607.5 857.313 1614.33C855.828 1621.17 863.254 1631.27 863.848 1624.44C864.442 1617.6 875.136 1607.5 875.136 1626.52ZM915.239 1626.52C915.239 1631.42 923.854 1638.41 928.904 1641.38C935.142 1645.05 924.151 1648.81 913.16 1639.59C904.651 1632.46 902.763 1606.31 918.21 1604.82C923.854 1604.28 931.578 1607.5 933.063 1614.33C934.548 1621.17 927.122 1631.27 926.528 1624.44C925.934 1617.6 915.239 1607.5 915.239 1626.52Z" fill="black"/>
<path d="M807.704 1396.79C748.292 1376.88 717.992 1336.91 707.298 1322.2C688.502 1296.34 709.674 1391.74 794.039 1420.86C794.99 1420.86 803.545 1404.81 807.704 1396.79Z" fill="#DF091E"/>
<path d="M992.178 1396.79C1051.59 1376.88 1081.89 1336.91 1092.58 1322.2C1111.38 1296.34 1090.21 1391.74 1005.84 1420.86C1004.89 1420.86 996.337 1404.81 992.178 1396.79Z" fill="#DF091E"/>
<path fill-rule="evenodd" clip-rule="evenodd" d="M835.925 1222.94C756.907 1293.07 538.271 1310.61 447.538 1111.79C431.976 1179.06 390.712 1224.34 340.179 1248.05C482.759 1554.56 762.135 1727.91 899.198 1758.47C1034.45 1728.31 1305.42 1557.53 1449.21 1259.52C1417.98 1251.21 1388.52 1236.09 1362.61 1211.64V1260.98H1111.6V1098.71H1135.95V1075.23H1064.66V1098.71H1089.02V1260.98H835.925V1222.94ZM965.444 1391.74C940.194 1353.4 872.464 1338.24 829.688 1388.47L815.427 1391.74C756.015 1371.83 710.565 1322.79 701.059 1309.71C682.263 1283.86 693.038 1370.04 751.856 1409.87L751.56 1415.81C742.767 1413.91 725.517 1422.35 717.992 1426.81C712.526 1432.27 685.613 1430.27 679.374 1424.13C665.59 1410.58 668.324 1418.25 670.462 1427.99C672.601 1437.74 684.424 1446.42 709.674 1446.42C716.09 1448.32 722.15 1454.44 691.85 1454.44C695.415 1460.15 708.486 1473.76 718.883 1473.76C723.02 1490.02 730.098 1482.66 735.144 1477.41L735.221 1477.33C742.648 1469.6 748.486 1475.25 744.132 1479.11C725.715 1495.46 744.132 1504.29 751.856 1495.46C778.888 1464.55 785.138 1482.98 783.941 1488.03C767.603 1556.98 807.409 1592.04 826.42 1614.33C829.688 1618.16 838.6 1647.62 829.688 1672.58C827.672 1678.23 837.117 1696.36 857.317 1694.28C884.347 1688.11 903.66 1688.39 930.688 1694.28C950.888 1696.36 960.33 1678.23 958.314 1672.58C949.403 1647.62 958.314 1618.16 961.582 1614.33C980.594 1592.04 1020.4 1556.98 1004.06 1488.03C1000.68 1473.76 1027.53 1477.63 1038.82 1496.05C1047.55 1510.32 1071.79 1488.03 1059.31 1477.92C1043.9 1465.44 1053.37 1460.39 1066.14 1472.87C1077.4 1483.87 1088.13 1469.01 1081.89 1462.17C1073.75 1453.26 1075.65 1447.31 1089.32 1458.61C1098.52 1466.22 1116.64 1445.53 1113.08 1442.56C1109.52 1439.59 1100.61 1435.72 1106.55 1434.53C1130.01 1429.18 1131.91 1401.55 1119.02 1414.03C1104.05 1428.53 1052.78 1421.46 1046.84 1409.87C1105.66 1370.04 1116.43 1283.86 1097.64 1309.71C1088.13 1322.79 1042.68 1371.83 983.267 1391.74H965.444Z" fill="#FBC111"/>
<path d="M1251.51 856.203H1259.23C1259.91 812.897 1351.39 590.855 1543.22 612.996V557.527C1049.51 476.066 762.358 472.11 252.203 557.527V620.829H506.783V677.89C564.116 635.094 637.192 586.355 760.472 619.343H917.616V893.946H760.472C758.808 868.745 748.292 807.213 680.86 798.846C650.203 795.042 573.622 849.962 592.633 981.914C627.092 1121 733.736 1111.79 781.266 981.914H917.616L969.304 794.388H937.222V619.343H1266.07V794.388H1233.98L1251.51 856.203Z" fill="#FBC111"/>
<path d="M279.83 1019.66V794.982H252.203V845.725C252.203 920.501 260.432 990.871 275.139 1056.77C278.06 1047.03 279.83 1034.66 279.83 1019.66Z" fill="#FBC111"/>
<path d="M1522.13 798.549C1491.48 794.745 1414.89 849.665 1433.91 981.617C1449.68 1045.3 1480.78 1077.7 1514.42 1081.66C1532.79 1008.74 1543.22 930.072 1543.22 845.725V803.413C1536.9 801.178 1529.89 799.512 1522.13 798.549Z" fill="#FBC111"/>
<path d="M222.2 794.982V845.725C222.2 930.54 232.764 1010 250.911 1083.85C260.302 1083.92 269.709 1074.89 275.139 1056.77C260.432 990.871 252.203 920.501 252.203 845.725V794.982H222.2Z" fill="black"/>
<path d="M880.781 267.413C881.999 266.157 883.346 265.028 884.801 264.046L884.307 263.347C882.832 264.297 881.457 265.391 880.203 266.608L880.781 267.413Z" fill="black"/>
<path d="M884.801 264.046C885.607 263.502 886.447 263.003 887.316 262.554L886.863 261.894C885.982 262.331 885.129 262.817 884.307 263.347L884.801 264.046Z" fill="black"/>
<path d="M911.378 263.038C912.558 263.71 913.678 264.474 914.729 265.321L915.052 264.889C913.993 264.047 912.868 263.283 911.687 262.609L911.378 263.038Z" fill="black"/>
<path d="M914.729 265.321C915.536 265.971 916.301 266.67 917.022 267.413L917.367 266.965C916.637 266.229 915.864 265.536 915.052 264.889L914.729 265.321Z" fill="black"/>
<path d="M923.705 289.76C923.485 290.916 923.186 292.044 922.814 293.139L923.846 293.49C924.191 292.385 924.465 291.249 924.663 290.088L923.705 289.76Z" fill="black"/>
<path d="M922.814 293.139C922.516 294.016 922.171 294.872 921.782 295.703L922.882 296.089C923.247 295.245 923.569 294.377 923.846 293.49L922.814 293.139Z" fill="black"/>
<path d="M903.654 309.819C902.288 310.079 900.882 310.229 899.447 310.26L899.423 312.036C900.86 311.993 902.268 311.834 903.638 311.57L903.654 309.819Z" fill="black"/>
<path fill-rule="evenodd" clip-rule="evenodd" d="M898.604 312.049C898.878 312.049 899.151 312.045 899.423 312.036L899.447 310.26C899.377 310.261 899.306 310.263 899.235 310.264C899.124 310.265 899.013 310.266 898.901 310.266C897.568 310.266 896.259 310.162 894.981 309.963C894.901 309.951 894.822 309.938 894.743 309.925L894.715 311.765C895.984 311.952 897.283 312.049 898.604 312.049Z" fill="black"/>
<path d="M876.46 296.595C875.866 295.446 875.357 294.245 874.943 293.001L873.363 293.491C873.754 294.743 874.235 295.955 874.799 297.12L876.46 296.595Z" fill="black"/>
<path d="M873.363 293.491L874.943 293.001C874.535 291.777 874.218 290.51 874 289.21C873.981 289.096 873.962 288.982 873.945 288.868L872.429 289.342C872.63 290.764 872.945 292.15 873.363 293.491Z" fill="black"/>
<path d="M1049.21 335.527L1038.43 318.587C1037.43 322.758 1036.25 326.857 1034.9 330.878L1049.21 335.527Z" fill="black"/>
<path d="M1030.34 342.659L1049.21 335.527L1034.9 330.878C1033.55 334.887 1032.02 338.817 1030.34 342.659Z" fill="black"/>
<path d="M993.069 161.077L975.84 163.823C979.238 165.987 982.539 168.29 985.735 170.724L993.069 161.077Z" fill="black"/>
<path d="M993.755 177.302L993.069 161.077L985.735 170.724C988.488 172.821 991.163 175.015 993.755 177.302Z" fill="black"/>
<path d="M809.19 157.213L806.106 175.52C809.445 172.686 812.914 170.001 816.505 167.477L816.506 167.476L809.19 157.213Z" fill="black"/>
<path d="M828.201 160.07L809.19 157.213L816.506 167.476C820.275 164.826 824.178 162.354 828.201 160.07Z" fill="black"/>
<path d="M758.822 316.21L749.481 331.961L761.988 328.059C760.769 324.178 759.712 320.225 758.822 316.21Z" fill="black"/>
<path d="M749.481 331.961L765.245 337.31C764.058 334.275 762.971 331.19 761.988 328.059L749.481 331.961Z" fill="black"/>
<path fill-rule="evenodd" clip-rule="evenodd" d="M1543.22 94.5062V535.535C1049.51 454.074 762.358 450.118 252.203 535.535V94.5062H1543.22ZM434.3 128.386L715.021 411.904L700.763 428.547L528.171 253.502C522.725 258.059 508.803 272.106 496.683 291.84C484.563 311.573 529.657 315.912 553.719 315.615C580.097 315.853 583.722 330.177 582.236 337.31C581.715 339.814 580.454 344.264 578.811 350.064C572.459 372.484 560.392 415.073 563.224 443.406C563.249 443.61 563.273 443.814 563.298 444.018C563.323 444.22 563.347 444.422 563.372 444.625C563.415 444.972 563.458 445.321 563.501 445.671L563.509 445.74C564.915 457.164 566.542 470.383 559.66 473.72C530.845 487.688 500.248 451.728 494.604 438.651C489.831 427.595 468.705 428.012 448.824 428.404C445.193 428.476 441.603 428.547 438.162 428.547C415.883 428.547 402.218 411.904 421.23 387.832C436.44 368.574 398.257 352.466 377.265 346.82C317.054 342.402 358.545 267.441 400.815 191.072L400.815 191.071C408.596 177.014 416.402 162.91 423.606 149.189L417.665 142.651C368.354 136.707 430.142 81.4301 434.3 128.386ZM1359.94 128.122L1079.22 411.641L1093.47 428.284L1266.07 253.239C1271.51 257.796 1285.43 271.843 1297.55 291.577C1309.67 311.31 1264.58 315.649 1240.52 315.352C1214.14 315.589 1210.52 329.914 1212 337.047C1212.52 339.548 1213.78 343.992 1215.42 349.784L1215.43 349.8L1215.43 349.801C1221.78 372.221 1233.85 414.81 1231.01 443.143C1230.97 443.538 1230.92 443.935 1230.87 444.336C1230.82 444.714 1230.78 445.095 1230.73 445.478C1229.32 456.902 1227.7 470.12 1234.58 473.456C1263.39 487.424 1293.99 451.464 1299.63 438.388C1304.41 427.331 1325.53 427.748 1345.41 428.141C1349.04 428.213 1352.63 428.284 1356.08 428.284C1378.35 428.284 1392.02 411.641 1373.01 387.569C1357.8 368.311 1395.98 352.203 1416.97 346.557C1477.18 342.139 1435.69 267.178 1393.42 190.809L1393.42 190.808L1393.42 190.805L1393.42 190.8L1393.41 190.794C1385.64 176.742 1377.83 162.642 1370.63 148.926L1376.57 142.387C1425.88 136.444 1364.1 81.1669 1359.94 128.122ZM909.916 428.13C963.904 424.03 1009.54 390.038 1030.34 342.659L1049.21 335.527L1038.43 318.587C1041.01 307.814 1042.38 296.569 1042.38 285.005C1042.38 242.107 1023.57 203.605 993.755 177.302L993.069 161.077L975.84 163.823C953.605 149.664 927.211 141.462 898.901 141.462C873.196 141.462 849.069 148.225 828.201 160.07L809.19 157.213L806.106 175.52C775.099 201.85 755.422 241.129 755.422 285.005C755.422 295.721 756.596 306.163 758.822 316.21L749.481 331.961L765.245 337.31C784.672 386.957 830.938 423.138 886.188 427.991L898.208 438.949L909.916 428.13Z" fill="#DF091E"/>
<path d="M886.188 427.991L898.208 438.949V428.545L898.099 428.545C894.087 428.523 890.115 428.336 886.188 427.991Z" fill="black"/>
<path d="M909.916 428.13C906.281 428.407 902.607 428.547 898.901 428.547C898.67 428.547 898.439 428.547 898.208 428.545V438.949L909.916 428.13Z" fill="black"/>
<path d="M1654.03 1178.36C1703.74 1138.72 1730.49 1052.53 1729.78 1034.22H1655.81C1642.82 1060.61 1627.81 1080.97 1611.65 1096.07C1601.03 1138.19 1587.97 1178.65 1572.86 1217.43L1572.86 1217.44C1610.2 1209.63 1626.52 1200.29 1654.03 1178.36Z" fill="white"/>
<path d="M1611.65 1096.07C1600.04 1106.92 1587.85 1115.05 1575.4 1120.75L1575.37 1120.85L1575.32 1121.04C1565.57 1155.85 1554.12 1189.42 1541.23 1221.74C1552.17 1221.04 1562.76 1219.55 1572.82 1217.44L1572.86 1217.44L1572.86 1217.43C1587.97 1178.65 1601.03 1138.19 1611.65 1096.07Z" fill="white"/>
<path d="M1643.33 845.207H1707.2V669.865H1643.33V701.07C1632.66 694.574 1622.51 688.773 1612.73 683.699C1598.95 676.542 1585.92 670.83 1573.23 666.654C1563.08 663.317 1553.15 660.961 1543.22 659.631C1501.32 654.019 1459.43 666.685 1401.53 701.07C1232.2 845.207 1312.11 1118.92 1401.53 1178.36C1423.49 1196.01 1446.85 1207.47 1470.2 1214.23C1480.23 1217.13 1490.26 1219.17 1500.18 1220.45C1514.18 1222.27 1527.97 1222.58 1541.23 1221.74C1554.12 1189.42 1565.57 1155.85 1575.32 1121.04L1575.37 1120.85L1575.4 1120.75C1561.07 1127.31 1546.4 1130.66 1531.89 1131.22C1521.57 1131.62 1511.33 1130.61 1501.35 1128.34C1455.92 1118.04 1415.94 1081.75 1398.56 1034.22C1366.05 945.359 1380.14 784.877 1494.8 753.672C1511.72 749.069 1528.02 748.466 1543.22 750.897C1553.81 752.59 1563.87 755.754 1573.23 760.064C1588.49 767.093 1601.9 777.168 1612.73 788.871C1626.09 803.289 1635.54 820.177 1639.77 836.885L1643.33 845.207Z" fill="white"/>
<path fill-rule="evenodd" clip-rule="evenodd" d="M1215.86 670.162V745.054H1171.9L1278.84 1137.34H1310.03V1209.26H1146.65V1137.34H1192.69L1162.99 1032.14H1032.58L1002.87 1137.34H1051V1209.26H887.613V1137.34H918.804L1025.75 745.054H987.425V670.162H1215.86ZM1048.03 957.841L1101.64 784.283L1155.26 957.841H1048.03Z" fill="white"/>
<path d="M804.162 845.427H868.03V670.086H804.162V701.29C715.605 647.414 663.325 641.332 562.356 701.29C393.033 845.427 472.941 1119.14 562.356 1178.58C658.901 1256.14 782.18 1214.24 814.857 1178.58C861.421 1127.76 888.349 1052.75 887.636 1034.44H816.639C741.186 1187.79 597.112 1137.56 559.386 1034.44C526.878 945.58 540.968 785.098 655.633 753.893C727.224 734.41 787.824 786.584 800.598 837.106L804.162 845.427Z" fill="white"/>
<path d="M222.2 743.865V670.459H185.662H156.55H50.5001V743.865H93.2766V1052.35C93.2766 1157.17 158.224 1214.41 229.155 1224.43C213.203 1184.15 199.448 1142.03 188.333 1098.1C179.51 1086.38 174.077 1071.13 174.077 1052.35V1032.9V743.865H185.662H222.2Z" fill="white"/>
<path d="M229.155 1224.43C238.984 1225.81 248.929 1226.3 258.831 1225.87C245.483 1192.85 233.65 1158.51 223.598 1122.87C209.772 1118.26 197.301 1110.01 188.333 1098.1C199.448 1142.03 213.203 1184.15 229.155 1224.43Z" fill="white"/>
<path d="M258.831 1225.87C271.159 1225.34 283.422 1223.41 295.317 1220.07C282.991 1190.01 271.954 1158.81 262.425 1126.48C249.422 1128.2 235.968 1127 223.598 1122.87C233.65 1158.51 245.483 1192.85 258.831 1225.87Z" fill="white"/>
<path d="M295.317 1220.07C304.898 1217.39 314.241 1213.79 323.187 1209.29C311.042 1179.8 300.175 1149.16 290.813 1117.39C282.076 1122.13 272.383 1125.16 262.425 1126.48C271.954 1158.81 282.991 1190.01 295.317 1220.07Z" fill="white"/>
<path d="M456.58 670.459H284.88V743.865H327.656V1052.35C327.656 1084.17 312.063 1105.85 290.813 1117.39C300.175 1149.16 311.042 1179.8 323.187 1209.29C371.647 1184.88 408.457 1133.8 408.457 1056.21V1052.35V743.865H456.58V670.459Z" fill="white"/>
<path d="M1480.27 1265.52C1331.19 1581.25 1042.22 1763.07 899.198 1794.73C755.039 1762.82 460.523 1580.49 312.151 1258.74C300.4 1262.26 288.344 1264.74 276.156 1266.18C431.165 1606.23 745.589 1797.08 899.198 1830.69C1049.28 1797.86 1352.88 1614.91 1511.31 1289.37C1514.78 1282.24 1518.18 1275.05 1521.51 1267.79C1507.88 1268.03 1494.06 1267.34 1480.27 1265.52Z" fill="white"/>
<path d="M222.2 845.725V1019.66C222.2 1062.35 236.538 1083.75 250.911 1083.85C232.764 1010 222.2 930.54 222.2 845.725Z" fill="white"/>
<path d="M222.497 65.6789H1573.23V618.313C1575 618.735 1576.78 619.178 1578.57 619.641H1612.73V29.7189H185.662V620.829H222.497V65.6789Z" fill="white"/>
<path d="M429.251 171.181C397.366 218.038 340.786 315.259 369.542 329.286C405.486 346.82 432.221 354.547 448.857 373.567C456.283 326.908 497.812 255.583 516.586 248.45C473.056 237.818 452.612 223.642 429.251 171.181Z" fill="white"/>
<path d="M483.018 313.535C489.851 320.965 529.776 328.929 537.38 327.503C522.527 349.693 487.771 392.231 467.571 384.86C447.371 377.49 469.453 334.239 483.018 313.535Z" fill="white"/>
<path d="M443.212 381.294C451.431 388.625 471.968 400.671 488.365 390.21C504.763 379.749 536.192 346.622 549.857 331.366C557.877 327.007 573.324 322.093 570.948 337.31C567.977 356.33 545.995 445.97 549.857 460.941C553.719 475.912 518.071 454.997 511.239 443.406C505.773 434.134 493.713 422.306 488.365 417.551H448.857C438.137 415.174 419.802 407.863 432.221 397.639C447.745 384.86 423.98 381.294 443.212 381.294Z" fill="white"/>
<path d="M445.886 168.506C452.205 203.835 463.169 218.371 505.298 228.241L445.886 168.506Z" fill="white"/>
<path d="M783.011 333.913C791.689 354.781 805.83 373.016 824.038 386.639C842.246 400.263 863.726 408.679 886.188 411.11C888.819 411.395 891.267 410.702 893.259 409.344L894.715 311.765C893.633 311.605 892.571 311.38 891.536 311.093L850.778 345.631L876.208 299.662C875.694 298.843 875.223 297.995 874.799 297.12L782.865 326.17C781.967 328.582 781.926 331.305 783.011 333.913Z" fill="white"/>
<path d="M909.916 411.438C932.436 409.629 954.141 401.809 972.718 388.695C991.296 375.58 1005.93 357.743 1015.19 337.123C1016.49 334.217 1016.37 331.125 1015.19 328.47L922.882 296.089C922.465 297.053 921.993 297.987 921.469 298.887L945.54 345.631L906.32 310.905C905.444 311.172 904.549 311.394 903.638 311.57L902.716 409.344C904.7 410.842 907.197 411.656 909.916 411.438Z" fill="white"/>
<path fill-rule="evenodd" clip-rule="evenodd" d="M831.956 181.88C831.077 185.062 831.63 188.662 833.718 191.622C831.149 187.979 826.886 186.201 822.854 186.772L880.203 266.608C879.608 267.185 879.04 267.789 878.502 268.419C874.551 273.041 872.166 279.041 872.166 285.599C872.166 285.92 872.172 286.24 872.183 286.558C872.217 287.499 872.299 288.428 872.429 289.342L780.674 317.993C783.406 319.73 786.927 320.272 790.318 319.222C786.746 320.329 784.054 322.976 782.865 326.17L874.799 297.12C875.223 297.995 875.694 298.843 876.208 299.662C879.673 305.173 885.114 309.315 891.536 311.093C892.571 311.38 893.633 311.605 894.715 311.765L893.259 409.344C896.207 407.333 898.154 403.863 898.208 399.945C898.155 403.781 899.928 407.238 902.716 409.344L903.638 311.57C904.549 311.394 905.444 311.172 906.32 310.905C912.754 308.944 918.148 304.594 921.469 298.887C921.993 297.987 922.465 297.053 922.882 296.089L1015.19 328.47C1013.93 325.651 1011.49 323.325 1008.29 322.236C1011.32 323.268 1014.5 323.006 1017.13 321.723L924.663 290.088C924.856 288.963 924.977 287.814 925.022 286.645C925.036 286.298 925.043 285.949 925.043 285.599C925.043 278.94 922.583 272.856 918.523 268.206C918.151 267.78 917.766 267.366 917.367 266.965L977.622 188.787C974.165 188.79 970.703 190.444 968.431 193.484C971.044 189.989 971.456 185.501 969.793 181.88L911.687 262.609C910.852 262.133 909.989 261.7 909.1 261.316C905.883 259.922 902.334 259.149 898.604 259.149C895.362 259.149 892.255 259.733 889.385 260.802C888.522 261.123 887.681 261.488 886.863 261.894L831.956 181.88ZM911.687 262.609L911.378 263.038C912.558 263.71 913.678 264.474 914.729 265.321C915.536 265.971 916.301 266.67 917.022 267.413L917.367 266.965C916.637 266.229 915.864 265.536 915.052 264.889C913.993 264.047 912.868 263.283 911.687 262.609ZM924.663 290.088L923.705 289.76C923.485 290.916 923.186 292.044 922.814 293.139C922.516 294.016 922.171 294.872 921.782 295.703L922.882 296.089C923.247 295.245 923.569 294.377 923.846 293.49C924.191 292.385 924.465 291.249 924.663 290.088ZM903.638 311.57L903.654 309.819C902.288 310.079 900.882 310.229 899.447 310.26C899.377 310.261 899.306 310.263 899.235 310.264C899.124 310.265 899.013 310.266 898.901 310.266C897.568 310.266 896.259 310.162 894.981 309.963C894.901 309.951 894.822 309.938 894.743 309.925L894.715 311.765C895.984 311.952 897.283 312.049 898.604 312.049C898.878 312.049 899.151 312.045 899.423 312.036C900.86 311.993 902.268 311.834 903.638 311.57ZM874.799 297.12L876.46 296.595C875.866 295.446 875.357 294.245 874.943 293.001C874.535 291.777 874.218 290.51 874 289.21C873.981 289.096 873.962 288.982 873.945 288.868L872.429 289.342C872.63 290.764 872.945 292.15 873.363 293.491C873.754 294.743 874.235 295.955 874.799 297.12ZM886.863 261.894L887.316 262.554C886.447 263.003 885.607 263.502 884.801 264.046C883.346 265.028 881.999 266.157 880.781 267.413L880.203 266.608C881.457 265.391 882.832 264.297 884.307 263.347C885.129 262.817 885.982 262.331 886.863 261.894ZM898.901 307.888C911.042 307.888 920.884 298.042 920.884 285.896C920.884 273.75 911.042 263.904 898.901 263.904C886.761 263.904 876.919 273.75 876.919 285.896C876.919 298.042 886.761 307.888 898.901 307.888Z" fill="black"/>
<path d="M920.884 285.896C920.884 298.042 911.042 307.888 898.901 307.888C886.761 307.888 876.919 298.042 876.919 285.896C876.919 273.75 886.761 263.904 898.901 263.904C911.042 263.904 920.884 273.75 920.884 285.896Z" fill="white"/>
<path d="M965.711 177.302C946.429 165.522 924.276 159.086 901.541 158.771C878.806 158.457 856.483 164.279 836.883 175.52C834.961 176.623 833.545 178.205 832.657 180.023C832.366 180.619 832.132 181.241 831.956 181.88L886.863 261.894C887.681 261.488 888.522 261.123 889.385 260.802L899.198 203.575L909.1 261.316C909.989 261.7 910.852 262.133 911.687 262.609L969.793 181.88C968.954 180.054 967.588 178.449 965.711 177.302Z" fill="white"/>
<path d="M1022.83 314.648C1028.07 292.661 1027.34 269.594 1020.62 247.865C1013.89 226.136 1001.46 206.696 984.715 191.521C982.663 189.661 980.144 188.784 977.622 188.787L917.367 266.965C917.766 267.366 918.151 267.78 918.523 268.206L970.493 258.555L925.022 286.645C924.977 287.814 924.856 288.963 924.663 290.088L1017.13 321.723C1019.89 320.379 1022.05 317.915 1022.83 314.648Z" fill="white"/>
<path d="M817.494 189.209C800.337 203.915 787.372 223.004 780.048 244.539C772.724 266.073 771.36 289.112 775.99 311.235C776.608 314.185 778.356 316.519 780.674 317.993L872.429 289.342C872.299 288.428 872.217 287.499 872.183 286.558L825.528 261.229L878.502 268.419C879.04 267.789 879.608 267.185 880.203 266.608L822.854 186.772C820.948 187.042 819.093 187.837 817.494 189.209Z" fill="white"/>
<path d="M1351.03 381.031C1342.81 388.361 1322.27 400.407 1305.87 389.946C1289.47 379.485 1258.05 346.359 1244.38 331.103C1236.36 326.744 1220.91 321.83 1223.29 337.047C1226.26 356.067 1248.24 445.707 1244.38 460.678C1240.52 475.648 1276.17 454.733 1283 443.143C1288.46 433.871 1300.53 422.043 1305.87 417.288H1345.38C1356.1 414.91 1374.44 407.599 1362.02 397.376C1346.49 384.597 1370.26 381.031 1351.03 381.031Z" fill="white"/>
<path d="M1311.22 313.272C1304.39 320.701 1264.46 328.666 1256.86 327.239C1271.71 349.43 1306.47 391.967 1326.67 384.597C1346.87 377.227 1324.79 333.976 1311.22 313.272Z" fill="white"/>
<path d="M1364.99 170.918C1396.87 217.775 1453.45 314.995 1424.7 329.023C1388.75 346.557 1362.02 354.284 1345.38 373.304C1337.95 326.645 1296.43 255.32 1277.65 248.187C1321.18 237.555 1341.63 223.379 1364.99 170.918Z" fill="white"/>
<path d="M1348.35 168.243C1342.03 203.572 1331.07 218.108 1288.94 227.978L1348.35 168.243Z" fill="white"/>
<path fill-rule="evenodd" clip-rule="evenodd" d="M794.039 1431.56C789.979 1448.3 786.197 1482.62 803.545 1485.95C825.23 1490.11 861.769 1496.65 865.928 1504.37H925.934C949.104 1501.4 957.719 1490.11 979.404 1485.95C996.752 1482.62 1006.34 1454.54 1002.28 1437.8C1019.51 1456.23 1003.29 1484.64 982.375 1496.05C963.363 1506.43 924.626 1514.66 930.092 1543.9C930.092 1553.11 942.804 1574.81 943.46 1590.56C943.757 1597.69 945.539 1625.63 947.916 1633.95C950.292 1642.27 949.995 1659.21 945.539 1664.56C940.68 1670.39 925.988 1672.58 918.804 1668.42C909.774 1663.19 899.198 1664.56 891.178 1664.56C886.425 1664.56 870.086 1672.43 857.313 1671.1C845.906 1669.91 836.37 1655.64 840.975 1646.43C844.539 1639.3 846.804 1628.3 845.133 1619.38C842.46 1605.12 845.728 1593.33 848.698 1588.18C859.689 1571.83 868.007 1526.36 857.313 1515.67C856.818 1513.39 846.559 1506.57 809.486 1497.54C772.413 1488.5 783.741 1449.79 794.039 1431.56ZM930.092 1511.8H863.254C871.869 1521.02 870.681 1550.73 863.254 1574.81C860.962 1582.24 862.303 1585.8 871.572 1588.18C872.463 1588.18 915.834 1590.56 922.369 1587.29C928.013 1585.8 936.724 1584.32 931.578 1577.78C916.606 1558.76 924.349 1525.87 930.092 1511.8ZM870.681 1592.64C852.009 1584.3 849.589 1593.53 851.075 1608.69C852.56 1623.84 852.338 1633.53 848.698 1650C847.51 1655.94 854.045 1659.77 860.283 1661.59C867.651 1663.73 874.542 1658.06 884.345 1656.83C898.604 1655.05 921.746 1660.32 930.092 1661.59C943.757 1663.67 946.431 1647.32 942.272 1637.22C937.757 1628.9 938.87 1614.33 938.707 1605.71C938.469 1593.11 933.657 1588.53 927.122 1592.64C916.725 1599.18 889.989 1601.26 870.681 1592.64Z" fill="white"/>
<path d="M853.154 1522.2L843.945 1512.69C832.063 1526.96 814.239 1519.23 818.398 1503.18L807.11 1500.21C800.872 1509.42 809.032 1526.81 821.666 1532.9C832.876 1538.31 853.154 1522.2 853.154 1522.2Z" fill="white"/>
<path d="M939.141 1526.36L947.916 1515.67C959.798 1529.93 976.137 1521.91 971.978 1505.86L982.375 1500.21C988.613 1509.42 982.966 1526.81 970.332 1532.9C959.123 1538.31 939.141 1526.36 939.141 1526.36Z" fill="white"/>
<path d="M825.23 1415.81C828.201 1426.11 832.954 1449.33 828.201 1459.79C829.688 1459.79 844.242 1451.18 845.133 1447.91C846.025 1444.64 850.183 1471.98 845.133 1482.08C846.916 1482.08 871.869 1466.33 871.572 1457.12C873.948 1465.94 877.988 1485.47 875.136 1493.08C882.662 1488.52 898.01 1477.69 899.198 1470.79C904.842 1476.54 918.091 1488.03 925.934 1488.03L929.201 1463.36C934.35 1467.82 944.767 1478.16 945.242 1483.87C949.005 1476.24 955.996 1459.68 953.857 1454.44C959.798 1458.31 971.978 1467.82 973.166 1474.95C986.534 1453.26 974.354 1431.09 968.413 1420.86C970.788 1424.9 970.195 1446.72 969.601 1457.12C966.749 1450.46 948.807 1434.53 940.192 1427.4C942.569 1436.22 946.609 1455.4 943.757 1461.58C932.825 1461.58 923.161 1441.57 919.695 1431.56C918.21 1442.26 916.131 1465.32 919.695 1471.98C899.792 1469.9 902.763 1447.91 902.763 1437.8C898.307 1449.39 896.525 1470.79 883.157 1473.76C882.068 1459.2 878.523 1430.08 873.057 1430.08C871.052 1439.78 865.097 1460.03 857.313 1463.36C855.035 1455.93 850.956 1438.34 852.857 1427.4C851.906 1432.63 843.153 1437.9 838.895 1439.88C838.182 1428.23 829.488 1418.98 825.23 1415.81Z" fill="white"/>
<path d="M840.083 1396.79C847.312 1394.81 862.898 1388.65 867.413 1379.85C857.313 1422.05 879.592 1396.79 881.969 1381.63C886.425 1420.86 902.763 1397.98 902.763 1382.82C909.493 1404.02 921.836 1407.48 920.586 1377.18C927.716 1388.47 930.984 1399.46 944.054 1387.58C944.054 1400.36 943.46 1406.6 917.319 1405.71C896.168 1418.31 872.265 1410.96 862.957 1405.71C848.936 1408.32 841.866 1400.85 840.083 1396.79Z" fill="white"/>
<path d="M928.904 1641.38C923.854 1638.41 915.239 1631.42 915.239 1626.52C915.239 1607.5 925.934 1617.6 926.528 1624.44C927.122 1631.27 934.548 1621.17 933.063 1614.33C931.578 1607.5 923.854 1604.28 918.21 1604.82C902.763 1606.31 904.651 1632.46 913.16 1639.59C924.151 1648.81 935.142 1645.05 928.904 1641.38Z" fill="white"/>
<path d="M861.472 1641.38C866.522 1638.41 875.136 1631.42 875.136 1626.52C875.136 1607.5 864.442 1617.6 863.848 1624.44C863.254 1631.27 855.828 1621.17 857.313 1614.33C858.798 1607.5 866.522 1604.28 872.166 1604.82C887.613 1606.31 885.725 1632.46 877.216 1639.59C866.225 1648.81 855.233 1645.05 861.472 1641.38Z" fill="white"/>
</svg>
